<svg width="17" height="17" viewBox="0 0 17 17" fill="none" xmlns="http://www.w3.org/2000/svg">
<g clip-path="url(#clip0_150_802)">
<path d="M14.5937 12.6041C14.0975 12.1041 12.8956 11.3744 12.3125 11.0804C11.5531 10.6979 11.4906 10.6666 10.8937 11.1101C10.4956 11.406 10.2309 11.6704 9.765 11.571C9.29906 11.4716 8.28656 10.9113 7.4 10.0276C6.51343 9.14381 5.92062 8.10194 5.82093 7.63756C5.72125 7.17319 5.99 6.91163 6.28312 6.51256C6.69625 5.95006 6.665 5.85631 6.31187 5.09694C6.03656 4.50631 5.28562 3.31569 4.78375 2.82194C4.24687 2.29163 4.24687 2.38538 3.90093 2.52913C3.6193 2.64762 3.34911 2.79166 3.09375 2.95944C2.59375 3.29163 2.31625 3.56756 2.12218 3.98225C1.92812 4.39694 1.84093 5.36913 2.84312 7.18975C3.84531 9.01038 4.54843 9.94131 6.00375 11.3926C7.45906 12.8438 8.57812 13.6241 10.2141 14.5416C12.2378 15.6751 13.0141 15.4541 13.43 15.2604C13.8459 15.0666 14.1231 14.7916 14.4559 14.2916C14.6241 14.0367 14.7685 13.7668 14.8872 13.4854C15.0312 13.1407 15.125 13.1407 14.5937 12.6041Z" stroke="#FFFFFF" stroke-width="2" stroke-miterlimit="10"/>
</g>
<defs>
<clipPath id="clip0_150_802">
<rect width="16" height="16" fill="white" transform="translate(0.5 0.916504)"/>
</clipPath>
</defs>
</svg>
