<svg width="19" height="19" viewBox="0 0 19 19" fill="none" xmlns="http://www.w3.org/2000/svg">
<path  fill="#A2C89B" d="M14.6211 17.8126C14.4961 17.8131 14.3742 17.7741 14.2727 17.7013L9.50003 14.2412L4.72739 17.7013C4.62543 17.7752 4.50258 17.8148 4.37662 17.8144C4.25066 17.8139 4.12811 17.7734 4.02669 17.6987C3.92527 17.624 3.85022 17.519 3.81241 17.3988C3.7746 17.2787 3.77598 17.1496 3.81635 17.0303L5.67776 11.517L0.853542 8.20867C0.749046 8.13709 0.670179 8.03397 0.628463 7.91438C0.586748 7.79478 0.58437 7.66498 0.621677 7.54394C0.658985 7.4229 0.734022 7.31696 0.835827 7.2416C0.937631 7.16624 1.06087 7.12541 1.18753 7.12508H7.13913L8.93522 1.59764C8.97391 1.4783 9.04941 1.37429 9.15088 1.30052C9.25235 1.22675 9.37458 1.18701 9.50003 1.18701C9.62548 1.18701 9.74771 1.22675 9.84918 1.30052C9.95064 1.37429 10.0261 1.4783 10.0648 1.59764L11.8609 7.12694H17.8125C17.9393 7.12687 18.0629 7.16742 18.165 7.24263C18.2671 7.31785 18.3424 7.42378 18.38 7.54491C18.4175 7.66605 18.4153 7.79602 18.3736 7.9158C18.3319 8.03557 18.253 8.13886 18.1484 8.21053L13.3223 11.517L15.1826 17.0288C15.2127 17.1181 15.2212 17.2132 15.2073 17.3064C15.1934 17.3995 15.1576 17.488 15.1027 17.5646C15.0479 17.6412 14.9756 17.7036 14.8919 17.7467C14.8081 17.7898 14.7153 17.8124 14.6211 17.8126Z"/>
</svg>
