<?xml version="1.0" standalone="no"?>
<!DOCTYPE svg PUBLIC "-//W3C//DTD SVG 20010904//EN"
 "http://www.w3.org/TR/2001/REC-SVG-20010904/DTD/svg10.dtd">
<svg version="1.0" xmlns="http://www.w3.org/2000/svg"
 width="270.000000pt" height="270.000000pt" viewBox="0 0 270.000000 270.000000"
 preserveAspectRatio="xMidYMid meet">
<metadata>
Created by potrace 1.14, written by Peter Selinger 2001-2017
</metadata>
<g transform="translate(0.000000,270.000000) scale(0.100000,-0.100000)"
fill="#000000" stroke="none">
<path d="M1379 2065 c-2 -2 -24 -6 -49 -10 -24 -4 -52 -11 -62 -16 -10 -5 -18
-7 -18 -4 0 17 -280 -110 -318 -145 -12 -12 -22 -19 -22 -16 0 3 -27 -22 -60
-56 -33 -34 -58 -64 -55 -66 2 -2 21 -5 42 -7 54 -3 146 -22 228 -45 107 -31
256 -91 250 -101 -4 -5 1 -6 9 -3 9 4 18 0 21 -8 3 -8 29 -26 58 -39 29 -13
55 -28 58 -32 3 -5 9 -8 13 -7 12 3 119 -43 176 -76 67 -39 174 -88 213 -99 4
-2 8 -3 10 -5 1 -1 11 -3 22 -5 11 -1 40 -7 65 -13 48 -10 52 -11 145 -12 105
-1 176 19 371 106 37 17 64 50 64 80 0 6 -57 70 -127 141 -113 113 -169 161
-231 198 -9 6 -35 22 -57 35 -22 14 -53 32 -70 40 -16 8 -32 17 -35 20 -12 13
-190 90 -207 90 -11 0 -23 4 -28 9 -21 20 -194 48 -297 49 -58 1 -107 -1 -109
-3z"/>
<path d="M518 1585 c-1 -2 -21 -6 -43 -9 -65 -10 -77 -13 -135 -34 -134 -47
-175 -85 -149 -134 21 -39 80 -109 169 -198 116 -116 146 -142 255 -216 312
-211 652 -285 1055 -228 74 11 189 52 285 103 49 27 106 57 125 67 19 11 37
21 40 24 3 3 24 18 47 33 42 29 159 145 152 151 -2 2 -53 6 -114 10 -101 5
-135 9 -205 22 -138 27 -217 46 -204 51 6 2 40 -3 77 -11 37 -7 70 -10 73 -5
2 5 -5 11 -18 13 -132 28 -173 39 -233 62 -39 14 -77 27 -85 29 -8 2 -28 9
-45 15 -246 98 -627 220 -765 245 -38 7 -276 16 -282 10z m55 -102 c-3 -8 -8
-11 -11 -8 -7 6 -69 -40 -104 -78 -30 -33 -53 -91 -43 -107 3 -5 2 -10 -3 -10
-15 0 -124 142 -115 150 15 13 126 54 162 60 66 11 119 8 114 -7z"/>
</g>
</svg>
